# xmcd
#
# Track frame offsets:
#	150
#	13383
#	35336
#	68124
#	85903
#	100717
#
# Disc length: 2642 seconds
# Revision: 0
# Processed by: cddbd v1.5.2PL0 Copyright (c) Steve Scherf et al.
# Submitted via: dBpowerAMP V12.0
#
DISCID=440a5006
DTITLE=Steppenwolf - Early Steppenwolf Live
DYEAR=1967
DGENRE=Bluesrock
TTITLE0=Power Play
TTITLE1=Howlin' for My Darlin'
TTITLE2=I'm Going Upstairs
TTITLE3=Corrina, Corrina
TTITLE4=Tighten Up Your Wig
TTITLE5=The Pusher
EXTD=
EXTT0=
EXTT1=
EXTT2=
EXTT3=
EXTT4=
EXTT5=
PLAYORDER=
